<svg xmlns="http://www.w3.org/2000/svg" width="48.551" height="48.551" viewBox="0 0 48.551 48.551"><defs><style>.a{fill:transparent;}.a,.b{stroke:#f65a5a;stroke-miterlimit:10;stroke-width:3px;}.b{fill:#e6f2ff;}</style></defs><g transform="translate(-751.706 -85.118)"><rect class="a" width="22.848" height="22.848" transform="translate(764.558 97.969)"/><line class="b" y2="7.33" transform="translate(764.558 85.118)"/><line class="b" y2="7.33" transform="translate(772.174 85.118)"/><line class="b" y2="7.33" transform="translate(779.789 85.118)"/><line class="b" y2="7.33" transform="translate(787.405 85.118)"/><line class="b" y2="7.33" transform="translate(764.558 126.339)"/><line class="b" y2="7.33" transform="translate(772.174 126.339)"/><line class="b" y2="7.33" transform="translate(779.789 126.339)"/><line class="b" y2="7.33" transform="translate(787.405 126.339)"/><line class="b" x1="7.33" transform="translate(792.927 97.969)"/><line class="b" x1="7.33" transform="translate(792.927 105.585)"/><line class="b" x1="7.33" transform="translate(792.927 113.201)"/><line class="b" x1="7.33" transform="translate(792.927 120.817)"/><line class="b" x1="7.33" transform="translate(751.706 97.969)"/><line class="b" x1="7.33" transform="translate(751.706 105.585)"/><line class="b" x1="7.33" transform="translate(751.706 113.201)"/><line class="b" x1="7.33" transform="translate(751.706 120.817)"/><g transform="translate(771.68 104.324)"><path class="a" d="M776.39,119.261v-9h4.391v9" transform="translate(-776.39 -109.122)"/><line class="b" y2="10.569" transform="translate(8.604 -0.431)"/><line class="b" x2="4.391" transform="translate(0 5.641)"/></g></g></svg>