<svg xmlns="http://www.w3.org/2000/svg" width="20.021" height="18.065" viewBox="0 0 20.021 18.065"><g transform="translate(0 0)"><path d="M135.888,157a4.888,4.888,0,1,0,4.888,4.888A4.893,4.893,0,0,0,135.888,157Zm0,8.212a3.324,3.324,0,1,1,3.324-3.324A3.327,3.327,0,0,1,135.888,165.212Z" transform="translate(-125.878 -151.838)"/><path d="M17.674,27.815H14.8a.242.242,0,0,1-.215-.13l-.8-1.673L13.779,26a1.8,1.8,0,0,0-1.617-1H7.913A1.8,1.8,0,0,0,6.3,26l-.007.014-.8,1.673a.242.242,0,0,1-.215.13H2.346A2.349,2.349,0,0,0,0,30.162V40.719a2.349,2.349,0,0,0,2.346,2.346H17.674a2.349,2.349,0,0,0,2.346-2.346V30.162A2.349,2.349,0,0,0,17.674,27.815Zm.782,12.9a.783.783,0,0,1-.782.782H2.346a.783.783,0,0,1-.782-.782V30.162a.783.783,0,0,1,.782-.782H5.279a1.8,1.8,0,0,0,1.617-1l.007-.014.8-1.673a.242.242,0,0,1,.215-.13h4.249a.242.242,0,0,1,.215.13l.8,1.673.007.014a1.8,1.8,0,0,0,1.617,1h2.877a.783.783,0,0,1,.782.782Z" transform="translate(0 -25)"/><rect width="2" height="1" transform="translate(15.189 6)"/></g></svg>