<svg xmlns="http://www.w3.org/2000/svg" width="50.183" height="46" viewBox="0 0 50.183 46"><defs><style>.a{fill:#014bbb;}</style></defs><g transform="translate(0 35.545)"><path class="a" d="M44.432,394.455H5.75A5.755,5.755,0,0,1,0,388.7v-3.136a1.568,1.568,0,0,1,3.136,0V388.7a2.617,2.617,0,0,0,2.614,2.614H44.432a2.617,2.617,0,0,0,2.614-2.614v-3.136a1.568,1.568,0,0,1,3.136,0V388.7A5.755,5.755,0,0,1,44.432,394.455Z" transform="translate(0 -384)"/></g><g transform="translate(0 0)"><path class="a" d="M48.614,35.969A1.569,1.569,0,0,1,47.045,34.4V27.083a2.617,2.617,0,0,0-2.614-2.614H5.75a2.617,2.617,0,0,0-2.614,2.614V34.4A1.568,1.568,0,1,1,0,34.4V27.083a5.755,5.755,0,0,1,5.75-5.75H44.432a5.755,5.755,0,0,1,5.75,5.75V34.4A1.569,1.569,0,0,1,48.614,35.969Z" transform="translate(0 -21.333)"/></g><g transform="translate(0 7.318)"><path class="a" d="M48.614,99.136H1.568a1.568,1.568,0,1,1,0-3.136H48.614a1.568,1.568,0,1,1,0,3.136Z" transform="translate(0 -96)"/></g><g transform="translate(0 23.523)"><path class="a" d="M6.8,264.469H1.568a1.568,1.568,0,1,1,0-3.136H6.8a1.568,1.568,0,1,1,0,3.136Z" transform="translate(0 -261.333)"/></g><g transform="translate(0 18.818)"><path class="a" d="M6.8,225.878H3.659A3.663,3.663,0,0,1,0,222.219v-5.227a3.663,3.663,0,0,1,3.659-3.659H6.8a1.568,1.568,0,0,1,0,3.136H3.659a.523.523,0,0,0-.523.523v5.227a.523.523,0,0,0,.523.523H6.8a1.568,1.568,0,0,1,0,3.136Z" transform="translate(0 -213.333)"/></g><g transform="translate(31.364 18.818)"><path class="a" d="M324.7,225.878h-1.045A3.663,3.663,0,0,1,320,222.219v-5.227a3.663,3.663,0,0,1,3.659-3.659H324.7a3.663,3.663,0,0,1,3.659,3.659v5.227A3.663,3.663,0,0,1,324.7,225.878Zm-1.045-9.409a.523.523,0,0,0-.523.523v5.227a.523.523,0,0,0,.523.523H324.7a.523.523,0,0,0,.523-.523v-5.227a.523.523,0,0,0-.523-.523Z" transform="translate(-320 -213.333)"/></g><g transform="translate(10.455 18.818)"><path class="a" d="M108.235,225.878a1.569,1.569,0,0,1-1.568-1.568V214.9a1.569,1.569,0,0,1,1.568-1.568h2.352a4.443,4.443,0,0,1,0,8.886H109.8v2.091A1.569,1.569,0,0,1,108.235,225.878Zm1.568-6.8h.784a1.307,1.307,0,0,0,0-2.614H109.8Z" transform="translate(-106.667 -213.333)"/></g><g transform="translate(12.023 24.567)"><path class="a" d="M127.9,278.781a1.556,1.556,0,0,1-1.108-.46l-3.659-3.659a1.569,1.569,0,0,1,2.218-2.218l3.659,3.659a1.569,1.569,0,0,1-1.11,2.678Z" transform="translate(-122.672 -271.984)"/></g><g transform="translate(20.909 18.818)"><path class="a" d="M214.9,225.878a1.569,1.569,0,0,1-1.568-1.568V214.9a1.569,1.569,0,0,1,1.568-1.568h2.352a4.443,4.443,0,1,1,0,8.886h-.784v2.091A1.569,1.569,0,0,1,214.9,225.878Zm1.568-6.8h.784a1.307,1.307,0,1,0,0-2.614h-.784Z" transform="translate(-213.333 -213.333)"/></g><g transform="translate(23.001 24.568)"><path class="a" d="M239.376,278.8a1.562,1.562,0,0,1-1.19-.548l-3.136-3.659a1.569,1.569,0,1,1,2.382-2.043l3.136,3.659a1.569,1.569,0,0,1-1.192,2.591Z" transform="translate(-234.672 -272)"/></g><g transform="translate(41.818 18.818)"><path class="a" d="M428.235,225.878a1.569,1.569,0,0,1-1.568-1.568V214.9a1.569,1.569,0,0,1,1.568-1.568h2.352a4.443,4.443,0,0,1,0,8.886H429.8v2.091A1.569,1.569,0,0,1,428.235,225.878Zm1.568-6.8h.784a1.307,1.307,0,0,0,0-2.614H429.8Z" transform="translate(-426.667 -213.333)"/></g><g transform="translate(43.91 24.568)"><path class="a" d="M452.71,278.8a1.562,1.562,0,0,1-1.19-.548l-3.136-3.659a1.569,1.569,0,0,1,2.382-2.043L453.9,276.2a1.569,1.569,0,0,1-1.192,2.591Z" transform="translate(-448.006 -272)"/></g></svg>