<svg xmlns="http://www.w3.org/2000/svg" width="56.576" height="41.729" viewBox="0 0 56.576 41.729"><defs><style>.a{fill:#758096;}</style></defs><g transform="translate(0 -71.516)"><path class="a" d="M56.131,93.3a4.564,4.564,0,0,0-1.985-2.089,6.034,6.034,0,0,0-2.934-.726h-5.69V85.742A6.678,6.678,0,0,0,38.883,79.1H22.761v-.948a6.389,6.389,0,0,0-1.956-4.682,6.39,6.39,0,0,0-4.683-1.956H6.639a6.389,6.389,0,0,0-4.683,1.956A6.388,6.388,0,0,0,0,78.155v28.452a6.387,6.387,0,0,0,1.956,4.682,6.389,6.389,0,0,0,4.683,1.957H38.884a9.705,9.705,0,0,0,4.149-1.023,9.625,9.625,0,0,0,3.437-2.593l8.743-10.758a5.664,5.664,0,0,0,1.363-3.556A4.683,4.683,0,0,0,56.131,93.3ZM3.794,78.155A2.833,2.833,0,0,1,6.639,75.31h9.484a2.833,2.833,0,0,1,2.845,2.845v1.9A2.833,2.833,0,0,0,21.813,82.9H38.883a2.832,2.832,0,0,1,2.845,2.845v4.742H18.968a9.573,9.573,0,0,0-4.149,1.023A9.988,9.988,0,0,0,11.38,94.1l-7.587,9.335V78.155ZM52.249,96.471l-8.713,10.758a6.774,6.774,0,0,1-4.653,2.222H6.639q-1.571,0-1.571-1.037a2.165,2.165,0,0,1,.534-1.186L14.315,96.47a6.12,6.12,0,0,1,2.119-1.556,5.953,5.953,0,0,1,2.534-.637H51.212q1.571,0,1.57,1.037A1.931,1.931,0,0,1,52.249,96.471Z" transform="translate(0)"/></g></svg>