<?xml version="1.0" encoding="UTF-8" standalone="no"?>
<!DOCTYPE svg PUBLIC "-//W3C//DTD SVG 1.1//EN" "http://www.w3.org/Graphics/SVG/1.1/DTD/svg11.dtd">
<svg version="1.1" xmlns="http://www.w3.org/2000/svg" xmlns:xlink="http://www.w3.org/1999/xlink" preserveAspectRatio="xMidYMid meet" viewBox="-1.0000000000000036 -1 275.27243146080303 140.00005741784278" width="271.27" height="136"><defs><path d="M271.24 125.57C271.66 130.9 267.67 135.56 262.33 135.97C262.09 135.99 261.84 136 261.59 136C256.85 136 218.89 136 214.14 136C209.28 136.02 205.17 132.41 204.56 127.58C199.91 89.52 165.28 62.44 127.22 67.09C95.55 70.95 70.59 95.91 66.72 127.58C66.11 132.41 62 136.02 57.13 136C52.39 136 14.42 136 9.68 136C4.33 135.99 -0.01 131.65 0 126.3C0 126.06 0.01 125.81 0.03 125.57C5.49 54.71 64.57 0 135.64 0C206.7 0 265.79 54.71 271.24 125.57Z" id="a39V1vUQE6"></path><path d="M14.57 100.3C14.91 98.65 16.53 97.6 18.18 97.94C19.82 98.28 20.88 99.9 20.54 101.55C20.51 101.7 20.46 101.85 20.41 102C20.36 102.17 20.11 103.03 19.66 104.58L23.61 105.73L23.45 106.26L13.66 103.43C14.15 101.76 14.45 100.72 14.57 100.3ZM19.17 104.45C19.61 102.94 19.85 102.11 19.9 101.94C20.42 100.64 19.79 99.16 18.48 98.63C17.18 98.11 15.7 98.74 15.17 100.05C15.11 100.2 15.06 100.37 15.03 100.53C14.98 100.7 14.74 101.53 14.31 103.04L19.17 104.45Z" id="a1QaFBFQ5U"></path><path d="M27.18 95.14C26.2 97.75 23.69 98.69 20.67 97.56C17.65 96.43 16.38 94.07 17.35 91.46C18.32 88.86 20.85 87.92 23.86 89.05C26.87 90.18 28.15 92.54 27.18 95.14ZM26.68 94.96C27.53 92.69 26.36 90.6 23.65 89.59C20.95 88.57 18.69 89.38 17.84 91.65C16.99 93.92 18.17 96.01 20.87 97.02C23.57 98.04 25.83 97.23 26.68 94.96Z" id="buNBomm7x"></path><path d="M31.01 86.13C29.81 88.64 27.22 89.35 24.32 87.97C21.41 86.58 20.35 84.12 21.54 81.62C22.74 79.11 25.33 78.39 28.22 79.77C31.13 81.16 32.2 83.62 31.01 86.13ZM30.54 85.9C31.58 83.71 30.59 81.52 27.98 80.28C25.37 79.04 23.05 79.65 22.01 81.83C20.97 84.02 21.96 86.21 24.56 87.45C27.17 88.69 29.49 88.08 30.54 85.9Z" id="a1plwgdKPG"></path><path d="M33.7 80.45L33.43 80.93L24.59 75.85C25.58 74.13 26.13 73.17 26.24 72.98C27.25 71.23 28.84 70.7 30.39 71.6C31.64 72.25 32.19 73.74 31.66 75.05C32.01 75.05 33.73 75.03 36.83 75L36.51 75.56C33.47 75.58 31.79 75.59 31.45 75.6C31.4 75.71 31.35 75.81 31.29 75.92C31.2 76.08 30.75 76.86 29.93 78.28L33.7 80.45ZM29.49 78.03C30.3 76.61 30.76 75.83 30.85 75.67C31.7 74.19 31.42 72.85 30.12 72.11C28.8 71.35 27.51 71.8 26.65 73.28C26.57 73.44 26.12 74.22 25.31 75.62L29.49 78.03Z" id="czgcuofRz"></path><path d="M78.91 34.88L74.18 25.86L79.36 23.14L79.6 23.6L74.91 26.06L76.88 29.83L81.2 27.56L81.44 28.01L77.12 30.28L79.4 34.62L78.91 34.88Z" id="aF1yUhHje"></path><path d="M88.19 26.57L84.01 28.45L84.25 32.07L83.7 32.32L83.06 21.43L83.57 21.2L91.29 28.9L90.75 29.15L88.19 26.57ZM83.97 27.92L87.83 26.19L83.63 21.97L83.6 21.99L83.97 27.92Z" id="cb1IoqKei"></path><path d="M92.19 28.62L88.44 19.14L88.96 18.93L92.71 28.41L92.19 28.62Z" id="a37uI9FY34"></path><path d="M94.81 27.58L94.28 27.76L90.96 18.13C92.84 17.48 93.88 17.13 94.09 17.05C96 16.4 97.54 17.04 98.13 18.74C98.64 20.05 98.07 21.54 96.82 22.18C97.08 22.4 98.39 23.52 100.74 25.54L100.13 25.75C97.83 23.77 96.55 22.67 96.3 22.45C96.19 22.5 96.08 22.55 95.96 22.58C95.79 22.64 94.94 22.94 93.39 23.47L94.81 27.58ZM93.23 22.99C94.77 22.46 95.63 22.16 95.8 22.1C97.41 21.55 98.08 20.36 97.59 18.94C97.09 17.5 95.82 16.99 94.21 17.55C94.04 17.61 93.19 17.9 91.66 18.43L93.23 22.99Z" id="a1naZyTJ8m"></path><path d="M165.52 19.3C166.43 16.31 168.74 14.86 171.31 15.64C173.17 16.11 174.43 17.85 174.28 19.77C174.22 19.76 173.78 19.62 173.73 19.61C173.8 17.99 172.72 16.54 171.15 16.14C168.9 15.45 166.9 16.76 166.08 19.46C165.24 22.2 166.18 24.49 168.4 25.17C170.11 25.84 172.02 24.99 172.69 23.29C172.75 23.13 172.8 22.96 172.84 22.79C172.85 22.75 172.91 22.56 173.01 22.23L169.61 21.19L169.76 20.71L173.69 21.9C173.51 22.48 173.41 22.8 173.39 22.87C172.97 24.94 170.96 26.28 168.89 25.86C168.67 25.82 168.45 25.75 168.25 25.67C165.71 24.9 164.6 22.32 165.52 19.3Z" id="c57LcHnB"></path><path d="M177.15 28.8C174.57 27.77 173.69 25.24 174.88 22.25C176.08 19.26 178.46 18.04 181.04 19.06C183.62 20.09 184.5 22.64 183.32 25.61C182.12 28.6 179.74 29.84 177.15 28.8ZM177.35 28.32C179.6 29.22 181.71 28.08 182.79 25.4C183.86 22.72 183.1 20.45 180.85 19.55C178.6 18.65 176.48 19.78 175.41 22.46C174.34 25.14 175.1 27.42 177.35 28.32Z" id="b1ad9ZUL1W"></path><path d="M186.09 32.83C183.6 31.57 182.94 28.97 184.39 26.1C185.84 23.22 188.32 22.21 190.8 23.46C193.28 24.7 193.94 27.31 192.5 30.18C191.05 33.05 188.57 34.08 186.09 32.83ZM186.32 32.36C188.48 33.45 190.69 32.5 191.99 29.92C193.28 27.34 192.72 25.01 190.56 23.93C188.4 22.84 186.19 23.78 184.9 26.36C183.6 28.94 184.16 31.27 186.32 32.36Z" id="e2uQyc2K1V"></path><path d="M199.23 28.28C201.86 29.89 202.4 32.4 200.71 35.16C199.03 37.92 196.55 38.59 193.91 36.97C193.73 36.86 192.83 36.31 191.22 35.33L196.53 26.63C197.97 27.51 198.87 28.06 199.23 28.28ZM191.97 35.18C193.28 35.99 194.01 36.43 194.15 36.52C196.52 37.97 198.7 37.37 200.22 34.87C201.75 32.37 201.3 30.15 198.93 28.71C198.79 28.62 198.06 28.17 196.75 27.37L191.97 35.18Z" id="l1fjiF6HhY"></path><path d="M226.24 66L222.53 61.37L230.48 54.99L234.2 59.62L233.8 59.94L230.43 55.74L227.16 58.37L230.36 62.37L229.97 62.69L226.76 58.69L223.28 61.48L226.65 65.68L226.24 66Z" id="a3mIUSt5P"></path><path d="M233.03 66.73L233.04 66.72L235.14 60.84L235.52 61.39L233.6 66.76L233.6 66.78L239.32 66.86L239.69 67.39L233.42 67.29L233.41 67.3L231.31 73.19L230.93 72.64L232.85 67.28L232.84 67.27L227.14 67.18L226.76 66.65L233.03 66.73Z" id="a1DcxJLdrW"></path><path d="M242.58 71.9C243.64 73.6 243.26 75.83 241.68 77.08C241.65 77.03 241.42 76.65 241.39 76.6C242.71 75.51 243.02 73.62 242.12 72.16C240.9 70.1 238.58 69.71 236.12 71.17C233.6 72.67 232.79 74.93 234 76.97C234.75 78.48 236.52 79.17 238.09 78.56C238.12 78.61 238.34 78.99 238.37 79.04C236.54 79.81 234.43 79.02 233.55 77.24C232.16 74.89 233.04 72.33 235.83 70.68C238.56 69.06 241.18 69.54 242.58 71.9Z" id="ar5GWNvBF"></path><path d="M238.86 86.93L236.21 81.62L245.33 77.07L247.98 82.38L247.52 82.61L245.12 77.8L241.36 79.67L243.65 84.26L243.2 84.48L240.91 79.9L236.92 81.89L239.32 86.7L238.86 86.93Z" id="a1IIPEjZKd"></path><path d="M241.75 93.69L239.46 88.25L248.85 84.29L249.07 84.8L240.15 88.56L242.23 93.49L241.75 93.69Z" id="g1rYwoS2PJ"></path><path d="M244.12 100.36L242.16 94.79L251.78 91.42L251.96 91.94L242.84 95.15L244.61 100.19L244.12 100.36Z" id="bzdKPFVli"></path><path d="M246.07 107.2L244.46 101.48L254.27 98.73L255.88 104.45L255.38 104.59L253.93 99.4L249.89 100.54L251.27 105.47L250.78 105.61L249.4 100.67L245.11 101.88L246.57 107.06L246.07 107.2Z" id="a9tIIdPNg"></path><path d="M246.43 108.58L256.41 106.54L256.53 107.11L248.84 115.3L248.85 115.34L257.83 113.51L257.95 114.05L247.96 116.09L247.86 115.57L255.59 107.31L255.58 107.27L246.54 109.12L246.43 108.58Z" id="anfdFlTVP"></path><path d="M248.55 120.49L258.15 119.27L257.7 115.72L258.21 115.65L259.18 123.29L258.67 123.36L258.22 119.82L248.62 121.04L248.55 120.49Z" id="f16hbweA6I"></path></defs><g><g><use xlink:href="#a39V1vUQE6" opacity="1" fill="#ffffff" fill-opacity="1"></use><g><use xlink:href="#a39V1vUQE6" opacity="1" fill-opacity="0" stroke="#000000" stroke-width="1" stroke-opacity="0"></use></g></g><g><use xlink:href="#a1QaFBFQ5U" opacity="1" fill="#000000" fill-opacity="1"></use><g><use xlink:href="#a1QaFBFQ5U" opacity="1" fill-opacity="0" stroke="#000000" stroke-width="1" stroke-opacity="0"></use></g></g><g><use xlink:href="#buNBomm7x" opacity="1" fill="#000000" fill-opacity="1"></use><g><use xlink:href="#buNBomm7x" opacity="1" fill-opacity="0" stroke="#000000" stroke-width="1" stroke-opacity="0"></use></g></g><g><use xlink:href="#a1plwgdKPG" opacity="1" fill="#000000" fill-opacity="1"></use><g><use xlink:href="#a1plwgdKPG" opacity="1" fill-opacity="0" stroke="#000000" stroke-width="1" stroke-opacity="0"></use></g></g><g><use xlink:href="#czgcuofRz" opacity="1" fill="#000000" fill-opacity="1"></use><g><use xlink:href="#czgcuofRz" opacity="1" fill-opacity="0" stroke="#000000" stroke-width="1" stroke-opacity="0"></use></g></g><g><use xlink:href="#aF1yUhHje" opacity="1" fill="#000000" fill-opacity="1"></use><g><use xlink:href="#aF1yUhHje" opacity="1" fill-opacity="0" stroke="#000000" stroke-width="1" stroke-opacity="0"></use></g></g><g><use xlink:href="#cb1IoqKei" opacity="1" fill="#000000" fill-opacity="1"></use><g><use xlink:href="#cb1IoqKei" opacity="1" fill-opacity="0" stroke="#000000" stroke-width="1" stroke-opacity="0"></use></g></g><g><use xlink:href="#a37uI9FY34" opacity="1" fill="#000000" fill-opacity="1"></use><g><use xlink:href="#a37uI9FY34" opacity="1" fill-opacity="0" stroke="#000000" stroke-width="1" stroke-opacity="0"></use></g></g><g><use xlink:href="#a1naZyTJ8m" opacity="1" fill="#000000" fill-opacity="1"></use><g><use xlink:href="#a1naZyTJ8m" opacity="1" fill-opacity="0" stroke="#000000" stroke-width="1" stroke-opacity="0"></use></g></g><g><use xlink:href="#c57LcHnB" opacity="1" fill="#000000" fill-opacity="1"></use><g><use xlink:href="#c57LcHnB" opacity="1" fill-opacity="0" stroke="#000000" stroke-width="1" stroke-opacity="0"></use></g></g><g><use xlink:href="#b1ad9ZUL1W" opacity="1" fill="#000000" fill-opacity="1"></use><g><use xlink:href="#b1ad9ZUL1W" opacity="1" fill-opacity="0" stroke="#000000" stroke-width="1" stroke-opacity="0"></use></g></g><g><use xlink:href="#e2uQyc2K1V" opacity="1" fill="#000000" fill-opacity="1"></use><g><use xlink:href="#e2uQyc2K1V" opacity="1" fill-opacity="0" stroke="#000000" stroke-width="1" stroke-opacity="0"></use></g></g><g><use xlink:href="#l1fjiF6HhY" opacity="1" fill="#000000" fill-opacity="1"></use><g><use xlink:href="#l1fjiF6HhY" opacity="1" fill-opacity="0" stroke="#000000" stroke-width="1" stroke-opacity="0"></use></g></g><g><use xlink:href="#a3mIUSt5P" opacity="1" fill="#000000" fill-opacity="1"></use><g><use xlink:href="#a3mIUSt5P" opacity="1" fill-opacity="0" stroke="#000000" stroke-width="1" stroke-opacity="0"></use></g></g><g><use xlink:href="#a1DcxJLdrW" opacity="1" fill="#000000" fill-opacity="1"></use><g><use xlink:href="#a1DcxJLdrW" opacity="1" fill-opacity="0" stroke="#000000" stroke-width="1" stroke-opacity="0"></use></g></g><g><use xlink:href="#ar5GWNvBF" opacity="1" fill="#000000" fill-opacity="1"></use><g><use xlink:href="#ar5GWNvBF" opacity="1" fill-opacity="0" stroke="#000000" stroke-width="1" stroke-opacity="0"></use></g></g><g><use xlink:href="#a1IIPEjZKd" opacity="1" fill="#000000" fill-opacity="1"></use><g><use xlink:href="#a1IIPEjZKd" opacity="1" fill-opacity="0" stroke="#000000" stroke-width="1" stroke-opacity="0"></use></g></g><g><use xlink:href="#g1rYwoS2PJ" opacity="1" fill="#000000" fill-opacity="1"></use><g><use xlink:href="#g1rYwoS2PJ" opacity="1" fill-opacity="0" stroke="#000000" stroke-width="1" stroke-opacity="0"></use></g></g><g><use xlink:href="#bzdKPFVli" opacity="1" fill="#000000" fill-opacity="1"></use><g><use xlink:href="#bzdKPFVli" opacity="1" fill-opacity="0" stroke="#000000" stroke-width="1" stroke-opacity="0"></use></g></g><g><use xlink:href="#a9tIIdPNg" opacity="1" fill="#000000" fill-opacity="1"></use><g><use xlink:href="#a9tIIdPNg" opacity="1" fill-opacity="0" stroke="#000000" stroke-width="1" stroke-opacity="0"></use></g></g><g><use xlink:href="#anfdFlTVP" opacity="1" fill="#000000" fill-opacity="1"></use><g><use xlink:href="#anfdFlTVP" opacity="1" fill-opacity="0" stroke="#000000" stroke-width="1" stroke-opacity="0"></use></g></g><g><use xlink:href="#f16hbweA6I" opacity="1" fill="#000000" fill-opacity="1"></use><g><use xlink:href="#f16hbweA6I" opacity="1" fill-opacity="0" stroke="#000000" stroke-width="1" stroke-opacity="0"></use></g></g></g></svg>