<?xml version="1.0" standalone="no"?>
<!DOCTYPE svg PUBLIC "-//W3C//DTD SVG 20010904//EN"
 "http://www.w3.org/TR/2001/REC-SVG-20010904/DTD/svg10.dtd">
<svg version="1.0" xmlns="http://www.w3.org/2000/svg"
 width="40.000000pt" height="40.000000pt" viewBox="0 0 225.000000 225.000000"
 preserveAspectRatio="xMidYMid meet">
<metadata>
Created by potrace 1.16, written by Peter Selinger 2001-2019
</metadata>
<g transform="translate(0.000000,225.000000) scale(0.100000,-0.100000)"
fill="#111111" stroke="none">
<path d="M74 2188 c-36 -34 -67 -71 -70 -83 -4 -15 25 -74 97 -199 56 -98 108
-180 116 -183 7 -3 37 -1 67 4 l54 10 307 -307 c272 -272 305 -308 290 -320
-54 -45 -57 -125 -6 -189 36 -46 79 -66 125 -58 29 5 38 0 69 -31 25 -26 37
-50 42 -82 4 -25 14 -58 23 -75 25 -49 601 -620 652 -647 37 -18 61 -23 130
-23 96 0 141 18 196 77 56 59 78 114 78 198 1 127 -5 135 -342 471 -163 163
-310 303 -327 311 -16 9 -50 19 -75 23 -32 5 -56 17 -82 42 -31 31 -36 40 -31
69 8 46 -12 89 -58 125 -64 51 -144 48 -189 -6 -12 -15 -48 18 -320 290 l-307
307 10 54 c5 30 7 60 4 67 -6 16 -352 217 -374 217 -8 0 -44 -28 -79 -62z
m243 -125 c62 -36 115 -68 117 -71 2 -4 0 -27 -4 -52 -6 -32 -5 -51 4 -65 8
-11 152 -159 322 -328 l308 -308 -27 -26 -26 -27 -308 308 c-169 170 -317 315
-328 322 -14 9 -33 10 -65 4 -32 -6 -48 -5 -56 3 -7 7 -44 68 -83 137 l-71
125 32 32 c26 27 34 30 52 21 12 -6 72 -40 133 -75z m968 -824 c17 -20 24 -38
19 -48 -22 -51 -17 -65 49 -129 59 -56 70 -62 107 -62 22 0 53 -6 68 -14 48
-26 600 -587 617 -628 37 -91 3 -193 -83 -245 -48 -29 -128 -31 -180 -4 -20
11 -171 154 -334 318 l-298 299 0 55 c0 54 -1 55 -64 118 -65 65 -76 69 -127
47 -21 -9 -79 39 -79 66 0 28 230 258 258 258 11 0 32 -14 47 -31z"/>
<path d="M1395 850 l-29 -31 267 -267 267 -267 32 33 33 32 -265 265 c-146
146 -267 265 -271 265 -3 0 -18 -14 -34 -30z"/>
<path d="M1605 2234 c-93 -22 -253 -106 -323 -169 -130 -118 -157 -275 -73
-437 l19 -38 -59 -64 c-60 -65 -68 -83 -47 -104 26 -26 55 -12 131 67 42 43
77 81 77 84 0 3 -17 40 -37 83 -94 198 -35 327 202 439 84 40 168 65 217 65
17 0 -1 -23 -80 -104 l-102 -103 0 -58 0 -57 142 -144 c204 -208 227 -211 378
-59 52 52 97 95 101 95 9 0 -8 -110 -26 -160 -22 -62 -80 -167 -121 -217 -87
-106 -212 -125 -358 -52 -33 16 -67 29 -75 29 -24 0 -111 -92 -111 -116 0 -50
45 -57 93 -14 l34 30 64 -27 c54 -23 78 -28 159 -28 84 0 101 3 146 27 146 77
286 333 288 528 1 108 -7 138 -40 146 -23 6 -40 -8 -158 -125 -79 -79 -139
-131 -151 -131 -23 0 -285 257 -285 279 0 7 61 76 136 152 123 125 134 140
124 159 -6 11 -22 25 -36 30 -36 14 -159 11 -229 -6z"/>
<path d="M665 1020 l-110 -111 -52 6 c-151 18 -329 -67 -418 -200 -59 -89 -77
-160 -73 -280 3 -88 8 -108 36 -167 68 -141 196 -237 349 -260 285 -44 541
191 520 476 l-5 71 79 81 c84 87 99 123 59 144 -28 15 -41 6 -140 -95 l-85
-85 0 -123 c0 -145 -15 -186 -95 -271 -176 -186 -481 -140 -597 89 -92 181
-14 404 175 497 63 31 72 33 179 33 l113 0 120 120 c107 106 120 124 118 150
-3 25 -8 30 -33 33 -26 2 -43 -11 -140 -108z"/>
<path d="M393 686 c-62 -18 -116 -35 -119 -39 -3 -3 -21 -60 -40 -127 -24 -84
-31 -126 -25 -138 13 -23 176 -182 187 -182 5 1 63 16 128 34 82 22 123 39
132 52 6 10 24 70 39 132 l28 114 -94 94 c-51 52 -100 94 -109 94 -8 -1 -66
-16 -127 -34z m172 -126 l58 -59 -18 -80 -18 -79 -84 -23 -84 -22 -60 59 c-67
66 -67 65 -31 174 l17 54 65 17 c36 9 72 18 80 18 9 1 42 -26 75 -59z"/>
</g>
</svg>
