<svg xmlns="http://www.w3.org/2000/svg" width="48.184" height="52.378" viewBox="0 0 48.184 52.378"><defs><style>.a{fill:#e9c81a;}</style></defs><path class="a" d="M66.886,37.705l-5.891-5.891A12.279,12.279,0,0,0,44.651,17.206L41.74,18.346l6.332,6.332a2.046,2.046,0,0,1-2.894,2.893L38.846,21.24l-1.141,2.911A12.279,12.279,0,0,0,52.314,40.494l5.891,5.891a6.138,6.138,0,0,0,8.681-8.681Zm-2.894,5.787a2.046,2.046,0,0,1-2.893,0l-7.726-7.726-1.247.488a8.187,8.187,0,0,1-11.16-7.108l1.318,1.318a6.138,6.138,0,0,0,8.681-8.681l-1.318-1.318a8.187,8.187,0,0,1,7.108,11.16l-.488,1.247L63.992,40.6h0a2.046,2.046,0,0,1,0,2.893Zm-8.681,5.787a10.159,10.159,0,0,0,5.1,2.775,6.108,6.108,0,0,1-1.963.324H26.638A6.145,6.145,0,0,1,20.5,46.24V6.138A6.145,6.145,0,0,1,26.638,0H58.454a6.145,6.145,0,0,1,6.138,6.138v17.11a16.346,16.346,0,0,0-3.882-6.187c-.069-.069-.14-.135-.21-.2V6.138a2.048,2.048,0,0,0-2.046-2.046H26.638a2.048,2.048,0,0,0-2.046,2.046V40.452a6.111,6.111,0,0,1,2.046-.351h10.82c.035.036.068.072.1.108a16.345,16.345,0,0,0,6.493,3.984H26.638a2.046,2.046,0,0,0,0,4.092h27.68Z" transform="translate(-20.5)"/></svg>