<svg xmlns="http://www.w3.org/2000/svg" width="53.533" height="53.533" viewBox="0 0 53.533 53.533"><defs><style>.a{fill:#3db751;}</style></defs><g transform="translate(-257 -146)"><g transform="translate(257 146)"><g transform="translate(8.049 11.603)"><path class="a" d="M83.71,111.555a1.977,1.977,0,0,0-2.8,0,13.517,13.517,0,0,0-3.866,10.956,1.978,1.978,0,0,0,1.966,1.781c.066,0,.132,0,.2-.01a1.978,1.978,0,0,0,1.771-2.165,9.576,9.576,0,0,1,2.727-7.766A1.977,1.977,0,0,0,83.71,111.555Z" transform="translate(-76.978 -110.975)"/></g><path class="a" d="M22.613,0A22.613,22.613,0,1,0,45.226,22.613,22.639,22.639,0,0,0,22.613,0Zm0,41.27A18.657,18.657,0,1,1,41.27,22.613,18.678,18.678,0,0,1,22.613,41.27Z"/><g transform="translate(35.205 35.205)"><path class="a" d="M354.457,351.661l-14.372-14.372a1.978,1.978,0,1,0-2.8,2.8l14.372,14.372a1.978,1.978,0,0,0,2.8-2.8Z" transform="translate(-336.708 -336.71)"/></g></g></g></svg>